<svg xmlns="http://www.w3.org/2000/svg" viewBox="0 0 512 512" width="512" height="512"><rect x="0" y="0" width="512" height="512" rx="116" ry="116" fill="#0b1220"/><g transform="translate(64 64)"><defs><radialGradient id="app-halo" cx="50%" cy="50%" r="50%"><stop offset="0%" stop-color="#ffffff" stop-opacity="0.32"/><stop offset="55%" stop-color="#ffffff" stop-opacity="0.112"/><stop offset="100%" stop-color="#ffffff" stop-opacity="0"/></radialGradient></defs><g fill="none" stroke="#ffffff" stroke-linecap="round"><line x1="138.70" y1="222.77" x2="192.00" y2="192.00" stroke-width="1.27" stroke-opacity="0.377"/><line x1="192.00" y1="192.00" x2="192.00" y2="130.45" stroke-width="1.27" stroke-opacity="0.377"/><line x1="192.00" y1="192.00" x2="245.30" y2="222.77" stroke-width="1.27" stroke-opacity="0.377"/><line x1="85.40" y1="253.55" x2="138.70" y2="222.77" stroke-width="1.44" stroke-opacity="0.490"/><line x1="138.70" y1="222.77" x2="138.70" y2="161.23" stroke-width="1.44" stroke-opacity="0.490"/><line x1="138.70" y1="222.77" x2="192.00" y2="253.55" stroke-width="1.44" stroke-opacity="0.490"/><line x1="192.00" y1="253.55" x2="245.30" y2="222.77" stroke-width="1.44" stroke-opacity="0.490"/><line x1="138.70" y1="161.23" x2="192.00" y2="130.45" stroke-width="1.44" stroke-opacity="0.490"/><line x1="245.30" y1="222.77" x2="245.30" y2="161.23" stroke-width="1.44" stroke-opacity="0.490"/><line x1="245.30" y1="222.77" x2="298.60" y2="253.55" stroke-width="1.44" stroke-opacity="0.490"/><line x1="192.00" y1="130.45" x2="192.00" y2="68.91" stroke-width="1.44" stroke-opacity="0.490"/><line x1="192.00" y1="130.45" x2="245.30" y2="161.23" stroke-width="1.44" stroke-opacity="0.490"/><line x1="85.40" y1="253.55" x2="85.40" y2="192.00" stroke-width="1.61" stroke-opacity="0.603"/><line x1="85.40" y1="253.55" x2="138.70" y2="284.32" stroke-width="1.61" stroke-opacity="0.603"/><line x1="138.70" y1="284.32" x2="192.00" y2="253.55" stroke-width="1.61" stroke-opacity="0.603"/><line x1="85.40" y1="192.00" x2="138.70" y2="161.23" stroke-width="1.61" stroke-opacity="0.603"/><line x1="192.00" y1="253.55" x2="245.30" y2="284.32" stroke-width="1.61" stroke-opacity="0.603"/><line x1="245.30" y1="284.32" x2="298.60" y2="253.55" stroke-width="1.61" stroke-opacity="0.603"/><line x1="138.70" y1="161.23" x2="138.70" y2="99.68" stroke-width="1.61" stroke-opacity="0.603"/><line x1="138.70" y1="99.68" x2="192.00" y2="68.91" stroke-width="1.61" stroke-opacity="0.603"/><line x1="298.60" y1="253.55" x2="298.60" y2="192.00" stroke-width="1.61" stroke-opacity="0.603"/><line x1="245.30" y1="161.23" x2="245.30" y2="99.68" stroke-width="1.61" stroke-opacity="0.603"/><line x1="245.30" y1="161.23" x2="298.60" y2="192.00" stroke-width="1.61" stroke-opacity="0.603"/><line x1="192.00" y1="68.91" x2="245.30" y2="99.68" stroke-width="1.61" stroke-opacity="0.603"/><line x1="138.70" y1="284.32" x2="138.70" y2="222.77" stroke-width="1.78" stroke-opacity="0.717"/><line x1="138.70" y1="284.32" x2="192.00" y2="315.09" stroke-width="1.78" stroke-opacity="0.717"/><line x1="192.00" y1="315.09" x2="245.30" y2="284.32" stroke-width="1.78" stroke-opacity="0.717"/><line x1="85.40" y1="192.00" x2="85.40" y2="130.45" stroke-width="1.78" stroke-opacity="0.717"/><line x1="85.40" y1="192.00" x2="138.70" y2="222.77" stroke-width="1.78" stroke-opacity="0.717"/><line x1="85.40" y1="130.45" x2="138.70" y2="99.68" stroke-width="1.78" stroke-opacity="0.717"/><line x1="245.30" y1="284.32" x2="245.30" y2="222.77" stroke-width="1.78" stroke-opacity="0.717"/><line x1="245.30" y1="222.77" x2="298.60" y2="192.00" stroke-width="1.78" stroke-opacity="0.717"/><line x1="138.70" y1="99.68" x2="192.00" y2="130.45" stroke-width="1.78" stroke-opacity="0.717"/><line x1="192.00" y1="130.45" x2="245.30" y2="99.68" stroke-width="1.78" stroke-opacity="0.717"/><line x1="298.60" y1="192.00" x2="298.60" y2="130.45" stroke-width="1.78" stroke-opacity="0.717"/><line x1="245.30" y1="99.68" x2="298.60" y2="130.45" stroke-width="1.78" stroke-opacity="0.717"/><line x1="192.00" y1="315.09" x2="192.00" y2="253.55" stroke-width="1.95" stroke-opacity="0.830"/><line x1="138.70" y1="222.77" x2="138.70" y2="161.23" stroke-width="1.95" stroke-opacity="0.830"/><line x1="138.70" y1="222.77" x2="192.00" y2="253.55" stroke-width="1.95" stroke-opacity="0.830"/><line x1="192.00" y1="253.55" x2="245.30" y2="222.77" stroke-width="1.95" stroke-opacity="0.830"/><line x1="85.40" y1="130.45" x2="138.70" y2="161.23" stroke-width="1.95" stroke-opacity="0.830"/><line x1="138.70" y1="161.23" x2="192.00" y2="130.45" stroke-width="1.95" stroke-opacity="0.830"/><line x1="245.30" y1="222.77" x2="245.30" y2="161.23" stroke-width="1.95" stroke-opacity="0.830"/><line x1="192.00" y1="130.45" x2="245.30" y2="161.23" stroke-width="1.95" stroke-opacity="0.830"/><line x1="245.30" y1="161.23" x2="298.60" y2="130.45" stroke-width="1.95" stroke-opacity="0.830"/><line x1="192.00" y1="253.55" x2="192.00" y2="192.00" stroke-width="2.13" stroke-opacity="0.943"/><line x1="138.70" y1="161.23" x2="192.00" y2="192.00" stroke-width="2.13" stroke-opacity="0.943"/><line x1="192.00" y1="192.00" x2="245.30" y2="161.23" stroke-width="2.13" stroke-opacity="0.943"/></g><g><circle cx="192.00" cy="192.00" r="8.84" fill="url(#app-halo)"/><circle cx="138.70" cy="222.77" r="11.22" fill="url(#app-halo)"/><circle cx="245.30" cy="222.77" r="11.22" fill="url(#app-halo)"/><circle cx="192.00" cy="130.45" r="11.22" fill="url(#app-halo)"/><circle cx="85.40" cy="253.55" r="13.60" fill="url(#app-halo)"/><circle cx="192.00" cy="253.55" r="13.60" fill="url(#app-halo)"/><circle cx="138.70" cy="161.23" r="13.60" fill="url(#app-halo)"/><circle cx="298.60" cy="253.55" r="13.60" fill="url(#app-halo)"/><circle cx="245.30" cy="161.23" r="13.60" fill="url(#app-halo)"/><circle cx="192.00" cy="68.91" r="13.60" fill="url(#app-halo)"/><circle cx="138.70" cy="284.32" r="15.98" fill="url(#app-halo)"/><circle cx="85.40" cy="192.00" r="15.98" fill="url(#app-halo)"/><circle cx="245.30" cy="284.32" r="15.98" fill="url(#app-halo)"/><circle cx="138.70" cy="99.68" r="15.98" fill="url(#app-halo)"/><circle cx="298.60" cy="192.00" r="15.98" fill="url(#app-halo)"/><circle cx="245.30" cy="99.68" r="15.98" fill="url(#app-halo)"/><circle cx="192.00" cy="315.09" r="18.36" fill="url(#app-halo)"/><circle cx="138.70" cy="222.77" r="18.36" fill="url(#app-halo)"/><circle cx="85.40" cy="130.45" r="18.36" fill="url(#app-halo)"/><circle cx="245.30" cy="222.77" r="18.36" fill="url(#app-halo)"/><circle cx="192.00" cy="130.45" r="18.36" fill="url(#app-halo)"/><circle cx="298.60" cy="130.45" r="18.36" fill="url(#app-halo)"/><circle cx="192.00" cy="253.55" r="20.74" fill="url(#app-halo)"/><circle cx="138.70" cy="161.23" r="20.74" fill="url(#app-halo)"/><circle cx="245.30" cy="161.23" r="20.74" fill="url(#app-halo)"/><circle cx="192.00" cy="192.00" r="23.12" fill="url(#app-halo)"/><circle cx="192.00" cy="192.00" r="2.60" fill="#ffffff" fill-opacity="0.550"/><circle cx="138.70" cy="222.77" r="3.30" fill="#ffffff" fill-opacity="0.625"/><circle cx="245.30" cy="222.77" r="3.30" fill="#ffffff" fill-opacity="0.625"/><circle cx="192.00" cy="130.45" r="3.30" fill="#ffffff" fill-opacity="0.625"/><circle cx="85.40" cy="253.55" r="4.00" fill="#ffffff" fill-opacity="0.700"/><circle cx="192.00" cy="253.55" r="4.00" fill="#ffffff" fill-opacity="0.700"/><circle cx="138.70" cy="161.23" r="4.00" fill="#ffffff" fill-opacity="0.700"/><circle cx="298.60" cy="253.55" r="4.00" fill="#ffffff" fill-opacity="0.700"/><circle cx="245.30" cy="161.23" r="4.00" fill="#ffffff" fill-opacity="0.700"/><circle cx="192.00" cy="68.91" r="4.00" fill="#ffffff" fill-opacity="0.700"/><circle cx="138.70" cy="284.32" r="4.70" fill="#ffffff" fill-opacity="0.775"/><circle cx="85.40" cy="192.00" r="4.70" fill="#ffffff" fill-opacity="0.775"/><circle cx="245.30" cy="284.32" r="4.70" fill="#ffffff" fill-opacity="0.775"/><circle cx="138.70" cy="99.68" r="4.70" fill="#ffffff" fill-opacity="0.775"/><circle cx="298.60" cy="192.00" r="4.70" fill="#ffffff" fill-opacity="0.775"/><circle cx="245.30" cy="99.68" r="4.70" fill="#ffffff" fill-opacity="0.775"/><circle cx="192.00" cy="315.09" r="5.40" fill="#ffffff" fill-opacity="0.850"/><circle cx="138.70" cy="222.77" r="5.40" fill="#ffffff" fill-opacity="0.850"/><circle cx="85.40" cy="130.45" r="5.40" fill="#ffffff" fill-opacity="0.850"/><circle cx="245.30" cy="222.77" r="5.40" fill="#ffffff" fill-opacity="0.850"/><circle cx="192.00" cy="130.45" r="5.40" fill="#ffffff" fill-opacity="0.850"/><circle cx="298.60" cy="130.45" r="5.40" fill="#ffffff" fill-opacity="0.850"/><circle cx="192.00" cy="253.55" r="6.10" fill="#ffffff" fill-opacity="0.925"/><circle cx="138.70" cy="161.23" r="6.10" fill="#ffffff" fill-opacity="0.925"/><circle cx="245.30" cy="161.23" r="6.10" fill="#ffffff" fill-opacity="0.925"/><circle cx="192.00" cy="192.00" r="6.80" fill="#ffffff" fill-opacity="1.000"/></g></g></svg>