<svg viewBox="0 0 32 32" xmlns="http://www.w3.org/2000/svg" width="32" height="32" style="display:block"><defs><radialGradient id="f32-halo" cx="50%" cy="50%" r="50%"><stop offset="0%" stop-color="#0b1220" stop-opacity="0.22"/><stop offset="55%" stop-color="#0b1220" stop-opacity="0.077"/><stop offset="100%" stop-color="#0b1220" stop-opacity="0"/></radialGradient></defs><g fill="none" stroke="#0b1220" stroke-linecap="round"><line x1="10.77" y1="19.02" x2="16.00" y2="16.00" stroke-width="0.75" stroke-opacity="0.377"/><line x1="16.00" y1="16.00" x2="16.00" y2="9.97" stroke-width="0.75" stroke-opacity="0.377"/><line x1="16.00" y1="16.00" x2="21.23" y2="19.02" stroke-width="0.75" stroke-opacity="0.377"/><line x1="5.55" y1="22.03" x2="10.77" y2="19.02" stroke-width="0.85" stroke-opacity="0.490"/><line x1="10.77" y1="19.02" x2="10.77" y2="12.98" stroke-width="0.85" stroke-opacity="0.490"/><line x1="10.77" y1="19.02" x2="16.00" y2="22.03" stroke-width="0.85" stroke-opacity="0.490"/><line x1="16.00" y1="22.03" x2="21.23" y2="19.02" stroke-width="0.85" stroke-opacity="0.490"/><line x1="10.77" y1="12.98" x2="16.00" y2="9.97" stroke-width="0.85" stroke-opacity="0.490"/><line x1="21.23" y1="19.02" x2="21.23" y2="12.98" stroke-width="0.85" stroke-opacity="0.490"/><line x1="21.23" y1="19.02" x2="26.45" y2="22.03" stroke-width="0.85" stroke-opacity="0.490"/><line x1="16.00" y1="9.97" x2="16.00" y2="3.93" stroke-width="0.85" stroke-opacity="0.490"/><line x1="16.00" y1="9.97" x2="21.23" y2="12.98" stroke-width="0.85" stroke-opacity="0.490"/><line x1="5.55" y1="22.03" x2="5.55" y2="16.00" stroke-width="0.95" stroke-opacity="0.603"/><line x1="5.55" y1="22.03" x2="10.77" y2="25.05" stroke-width="0.95" stroke-opacity="0.603"/><line x1="10.77" y1="25.05" x2="16.00" y2="22.03" stroke-width="0.95" stroke-opacity="0.603"/><line x1="5.55" y1="16.00" x2="10.77" y2="12.98" stroke-width="0.95" stroke-opacity="0.603"/><line x1="16.00" y1="22.03" x2="21.23" y2="25.05" stroke-width="0.95" stroke-opacity="0.603"/><line x1="21.23" y1="25.05" x2="26.45" y2="22.03" stroke-width="0.95" stroke-opacity="0.603"/><line x1="10.77" y1="12.98" x2="10.77" y2="6.95" stroke-width="0.95" stroke-opacity="0.603"/><line x1="10.77" y1="6.95" x2="16.00" y2="3.93" stroke-width="0.95" stroke-opacity="0.603"/><line x1="26.45" y1="22.03" x2="26.45" y2="16.00" stroke-width="0.95" stroke-opacity="0.603"/><line x1="21.23" y1="12.98" x2="21.23" y2="6.95" stroke-width="0.95" stroke-opacity="0.603"/><line x1="21.23" y1="12.98" x2="26.45" y2="16.00" stroke-width="0.95" stroke-opacity="0.603"/><line x1="16.00" y1="3.93" x2="21.23" y2="6.95" stroke-width="0.95" stroke-opacity="0.603"/><line x1="10.77" y1="25.05" x2="10.77" y2="19.02" stroke-width="1.05" stroke-opacity="0.717"/><line x1="10.77" y1="25.05" x2="16.00" y2="28.07" stroke-width="1.05" stroke-opacity="0.717"/><line x1="16.00" y1="28.07" x2="21.23" y2="25.05" stroke-width="1.05" stroke-opacity="0.717"/><line x1="5.55" y1="16.00" x2="5.55" y2="9.97" stroke-width="1.05" stroke-opacity="0.717"/><line x1="5.55" y1="16.00" x2="10.77" y2="19.02" stroke-width="1.05" stroke-opacity="0.717"/><line x1="5.55" y1="9.97" x2="10.77" y2="6.95" stroke-width="1.05" stroke-opacity="0.717"/><line x1="21.23" y1="25.05" x2="21.23" y2="19.02" stroke-width="1.05" stroke-opacity="0.717"/><line x1="21.23" y1="19.02" x2="26.45" y2="16.00" stroke-width="1.05" stroke-opacity="0.717"/><line x1="10.77" y1="6.95" x2="16.00" y2="9.97" stroke-width="1.05" stroke-opacity="0.717"/><line x1="16.00" y1="9.97" x2="21.23" y2="6.95" stroke-width="1.05" stroke-opacity="0.717"/><line x1="26.45" y1="16.00" x2="26.45" y2="9.97" stroke-width="1.05" stroke-opacity="0.717"/><line x1="21.23" y1="6.95" x2="26.45" y2="9.97" stroke-width="1.05" stroke-opacity="0.717"/><line x1="16.00" y1="28.07" x2="16.00" y2="22.03" stroke-width="1.15" stroke-opacity="0.830"/><line x1="10.77" y1="19.02" x2="10.77" y2="12.98" stroke-width="1.15" stroke-opacity="0.830"/><line x1="10.77" y1="19.02" x2="16.00" y2="22.03" stroke-width="1.15" stroke-opacity="0.830"/><line x1="16.00" y1="22.03" x2="21.23" y2="19.02" stroke-width="1.15" stroke-opacity="0.830"/><line x1="5.55" y1="9.97" x2="10.77" y2="12.98" stroke-width="1.15" stroke-opacity="0.830"/><line x1="10.77" y1="12.98" x2="16.00" y2="9.97" stroke-width="1.15" stroke-opacity="0.830"/><line x1="21.23" y1="19.02" x2="21.23" y2="12.98" stroke-width="1.15" stroke-opacity="0.830"/><line x1="16.00" y1="9.97" x2="21.23" y2="12.98" stroke-width="1.15" stroke-opacity="0.830"/><line x1="21.23" y1="12.98" x2="26.45" y2="9.97" stroke-width="1.15" stroke-opacity="0.830"/><line x1="16.00" y1="22.03" x2="16.00" y2="16.00" stroke-width="1.25" stroke-opacity="0.943"/><line x1="10.77" y1="12.98" x2="16.00" y2="16.00" stroke-width="1.25" stroke-opacity="0.943"/><line x1="16.00" y1="16.00" x2="21.23" y2="12.98" stroke-width="1.25" stroke-opacity="0.943"/></g><g><circle cx="16.00" cy="16.00" r="4.08" fill="url(#f32-halo)"/><circle cx="10.77" cy="19.02" r="4.76" fill="url(#f32-halo)"/><circle cx="21.23" cy="19.02" r="4.76" fill="url(#f32-halo)"/><circle cx="16.00" cy="9.97" r="4.76" fill="url(#f32-halo)"/><circle cx="5.55" cy="22.03" r="5.44" fill="url(#f32-halo)"/><circle cx="16.00" cy="22.03" r="5.44" fill="url(#f32-halo)"/><circle cx="10.77" cy="12.98" r="5.44" fill="url(#f32-halo)"/><circle cx="26.45" cy="22.03" r="5.44" fill="url(#f32-halo)"/><circle cx="21.23" cy="12.98" r="5.44" fill="url(#f32-halo)"/><circle cx="16.00" cy="3.93" r="5.44" fill="url(#f32-halo)"/><circle cx="10.77" cy="25.05" r="6.12" fill="url(#f32-halo)"/><circle cx="5.55" cy="16.00" r="6.12" fill="url(#f32-halo)"/><circle cx="21.23" cy="25.05" r="6.12" fill="url(#f32-halo)"/><circle cx="10.77" cy="6.95" r="6.12" fill="url(#f32-halo)"/><circle cx="26.45" cy="16.00" r="6.12" fill="url(#f32-halo)"/><circle cx="21.23" cy="6.95" r="6.12" fill="url(#f32-halo)"/><circle cx="16.00" cy="28.07" r="6.80" fill="url(#f32-halo)"/><circle cx="10.77" cy="19.02" r="6.80" fill="url(#f32-halo)"/><circle cx="5.55" cy="9.97" r="6.80" fill="url(#f32-halo)"/><circle cx="21.23" cy="19.02" r="6.80" fill="url(#f32-halo)"/><circle cx="16.00" cy="9.97" r="6.80" fill="url(#f32-halo)"/><circle cx="26.45" cy="9.97" r="6.80" fill="url(#f32-halo)"/><circle cx="16.00" cy="22.03" r="7.48" fill="url(#f32-halo)"/><circle cx="10.77" cy="12.98" r="7.48" fill="url(#f32-halo)"/><circle cx="21.23" cy="12.98" r="7.48" fill="url(#f32-halo)"/><circle cx="16.00" cy="16.00" r="8.16" fill="url(#f32-halo)"/><circle cx="16.00" cy="16.00" r="1.20" fill="#0b1220" fill-opacity="0.550"/><circle cx="10.77" cy="19.02" r="1.40" fill="#0b1220" fill-opacity="0.625"/><circle cx="21.23" cy="19.02" r="1.40" fill="#0b1220" fill-opacity="0.625"/><circle cx="16.00" cy="9.97" r="1.40" fill="#0b1220" fill-opacity="0.625"/><circle cx="5.55" cy="22.03" r="1.60" fill="#0b1220" fill-opacity="0.700"/><circle cx="16.00" cy="22.03" r="1.60" fill="#0b1220" fill-opacity="0.700"/><circle cx="10.77" cy="12.98" r="1.60" fill="#0b1220" fill-opacity="0.700"/><circle cx="26.45" cy="22.03" r="1.60" fill="#0b1220" fill-opacity="0.700"/><circle cx="21.23" cy="12.98" r="1.60" fill="#0b1220" fill-opacity="0.700"/><circle cx="16.00" cy="3.93" r="1.60" fill="#0b1220" fill-opacity="0.700"/><circle cx="10.77" cy="25.05" r="1.80" fill="#0b1220" fill-opacity="0.775"/><circle cx="5.55" cy="16.00" r="1.80" fill="#0b1220" fill-opacity="0.775"/><circle cx="21.23" cy="25.05" r="1.80" fill="#0b1220" fill-opacity="0.775"/><circle cx="10.77" cy="6.95" r="1.80" fill="#0b1220" fill-opacity="0.775"/><circle cx="26.45" cy="16.00" r="1.80" fill="#0b1220" fill-opacity="0.775"/><circle cx="21.23" cy="6.95" r="1.80" fill="#0b1220" fill-opacity="0.775"/><circle cx="16.00" cy="28.07" r="2.00" fill="#0b1220" fill-opacity="0.850"/><circle cx="10.77" cy="19.02" r="2.00" fill="#0b1220" fill-opacity="0.850"/><circle cx="5.55" cy="9.97" r="2.00" fill="#0b1220" fill-opacity="0.850"/><circle cx="21.23" cy="19.02" r="2.00" fill="#0b1220" fill-opacity="0.850"/><circle cx="16.00" cy="9.97" r="2.00" fill="#0b1220" fill-opacity="0.850"/><circle cx="26.45" cy="9.97" r="2.00" fill="#0b1220" fill-opacity="0.850"/><circle cx="16.00" cy="22.03" r="2.20" fill="#0b1220" fill-opacity="0.925"/><circle cx="10.77" cy="12.98" r="2.20" fill="#0b1220" fill-opacity="0.925"/><circle cx="21.23" cy="12.98" r="2.20" fill="#0b1220" fill-opacity="0.925"/><circle cx="16.00" cy="16.00" r="2.40" fill="#0b1220" fill-opacity="1.000"/></g></svg>