<svg viewBox="0 0 48 48" xmlns="http://www.w3.org/2000/svg" width="48" height="48" style="display:block"><defs><radialGradient id="f48-halo" cx="50%" cy="50%" r="50%"><stop offset="0%" stop-color="#0b1220" stop-opacity="0.22"/><stop offset="55%" stop-color="#0b1220" stop-opacity="0.077"/><stop offset="100%" stop-color="#0b1220" stop-opacity="0"/></radialGradient></defs><g fill="none" stroke="#0b1220" stroke-linecap="round"><line x1="16.16" y1="28.53" x2="24.00" y2="24.00" stroke-width="0.90" stroke-opacity="0.377"/><line x1="24.00" y1="24.00" x2="24.00" y2="14.95" stroke-width="0.90" stroke-opacity="0.377"/><line x1="24.00" y1="24.00" x2="31.84" y2="28.53" stroke-width="0.90" stroke-opacity="0.377"/><line x1="8.32" y1="33.05" x2="16.16" y2="28.53" stroke-width="1.02" stroke-opacity="0.490"/><line x1="16.16" y1="28.53" x2="16.16" y2="19.47" stroke-width="1.02" stroke-opacity="0.490"/><line x1="16.16" y1="28.53" x2="24.00" y2="33.05" stroke-width="1.02" stroke-opacity="0.490"/><line x1="24.00" y1="33.05" x2="31.84" y2="28.53" stroke-width="1.02" stroke-opacity="0.490"/><line x1="16.16" y1="19.47" x2="24.00" y2="14.95" stroke-width="1.02" stroke-opacity="0.490"/><line x1="31.84" y1="28.53" x2="31.84" y2="19.47" stroke-width="1.02" stroke-opacity="0.490"/><line x1="31.84" y1="28.53" x2="39.68" y2="33.05" stroke-width="1.02" stroke-opacity="0.490"/><line x1="24.00" y1="14.95" x2="24.00" y2="5.90" stroke-width="1.02" stroke-opacity="0.490"/><line x1="24.00" y1="14.95" x2="31.84" y2="19.47" stroke-width="1.02" stroke-opacity="0.490"/><line x1="8.32" y1="33.05" x2="8.32" y2="24.00" stroke-width="1.14" stroke-opacity="0.603"/><line x1="8.32" y1="33.05" x2="16.16" y2="37.58" stroke-width="1.14" stroke-opacity="0.603"/><line x1="16.16" y1="37.58" x2="24.00" y2="33.05" stroke-width="1.14" stroke-opacity="0.603"/><line x1="8.32" y1="24.00" x2="16.16" y2="19.47" stroke-width="1.14" stroke-opacity="0.603"/><line x1="24.00" y1="33.05" x2="31.84" y2="37.58" stroke-width="1.14" stroke-opacity="0.603"/><line x1="31.84" y1="37.58" x2="39.68" y2="33.05" stroke-width="1.14" stroke-opacity="0.603"/><line x1="16.16" y1="19.47" x2="16.16" y2="10.42" stroke-width="1.14" stroke-opacity="0.603"/><line x1="16.16" y1="10.42" x2="24.00" y2="5.90" stroke-width="1.14" stroke-opacity="0.603"/><line x1="39.68" y1="33.05" x2="39.68" y2="24.00" stroke-width="1.14" stroke-opacity="0.603"/><line x1="31.84" y1="19.47" x2="31.84" y2="10.42" stroke-width="1.14" stroke-opacity="0.603"/><line x1="31.84" y1="19.47" x2="39.68" y2="24.00" stroke-width="1.14" stroke-opacity="0.603"/><line x1="24.00" y1="5.90" x2="31.84" y2="10.42" stroke-width="1.14" stroke-opacity="0.603"/><line x1="16.16" y1="37.58" x2="16.16" y2="28.53" stroke-width="1.26" stroke-opacity="0.717"/><line x1="16.16" y1="37.58" x2="24.00" y2="42.10" stroke-width="1.26" stroke-opacity="0.717"/><line x1="24.00" y1="42.10" x2="31.84" y2="37.58" stroke-width="1.26" stroke-opacity="0.717"/><line x1="8.32" y1="24.00" x2="8.32" y2="14.95" stroke-width="1.26" stroke-opacity="0.717"/><line x1="8.32" y1="24.00" x2="16.16" y2="28.53" stroke-width="1.26" stroke-opacity="0.717"/><line x1="8.32" y1="14.95" x2="16.16" y2="10.42" stroke-width="1.26" stroke-opacity="0.717"/><line x1="31.84" y1="37.58" x2="31.84" y2="28.53" stroke-width="1.26" stroke-opacity="0.717"/><line x1="31.84" y1="28.53" x2="39.68" y2="24.00" stroke-width="1.26" stroke-opacity="0.717"/><line x1="16.16" y1="10.42" x2="24.00" y2="14.95" stroke-width="1.26" stroke-opacity="0.717"/><line x1="24.00" y1="14.95" x2="31.84" y2="10.42" stroke-width="1.26" stroke-opacity="0.717"/><line x1="39.68" y1="24.00" x2="39.68" y2="14.95" stroke-width="1.26" stroke-opacity="0.717"/><line x1="31.84" y1="10.42" x2="39.68" y2="14.95" stroke-width="1.26" stroke-opacity="0.717"/><line x1="24.00" y1="42.10" x2="24.00" y2="33.05" stroke-width="1.38" stroke-opacity="0.830"/><line x1="16.16" y1="28.53" x2="16.16" y2="19.47" stroke-width="1.38" stroke-opacity="0.830"/><line x1="16.16" y1="28.53" x2="24.00" y2="33.05" stroke-width="1.38" stroke-opacity="0.830"/><line x1="24.00" y1="33.05" x2="31.84" y2="28.53" stroke-width="1.38" stroke-opacity="0.830"/><line x1="8.32" y1="14.95" x2="16.16" y2="19.47" stroke-width="1.38" stroke-opacity="0.830"/><line x1="16.16" y1="19.47" x2="24.00" y2="14.95" stroke-width="1.38" stroke-opacity="0.830"/><line x1="31.84" y1="28.53" x2="31.84" y2="19.47" stroke-width="1.38" stroke-opacity="0.830"/><line x1="24.00" y1="14.95" x2="31.84" y2="19.47" stroke-width="1.38" stroke-opacity="0.830"/><line x1="31.84" y1="19.47" x2="39.68" y2="14.95" stroke-width="1.38" stroke-opacity="0.830"/><line x1="24.00" y1="33.05" x2="24.00" y2="24.00" stroke-width="1.50" stroke-opacity="0.943"/><line x1="16.16" y1="19.47" x2="24.00" y2="24.00" stroke-width="1.50" stroke-opacity="0.943"/><line x1="24.00" y1="24.00" x2="31.84" y2="19.47" stroke-width="1.50" stroke-opacity="0.943"/></g><g><circle cx="24.00" cy="24.00" r="5.44" fill="url(#f48-halo)"/><circle cx="16.16" cy="28.53" r="6.35" fill="url(#f48-halo)"/><circle cx="31.84" cy="28.53" r="6.35" fill="url(#f48-halo)"/><circle cx="24.00" cy="14.95" r="6.35" fill="url(#f48-halo)"/><circle cx="8.32" cy="33.05" r="7.25" fill="url(#f48-halo)"/><circle cx="24.00" cy="33.05" r="7.25" fill="url(#f48-halo)"/><circle cx="16.16" cy="19.47" r="7.25" fill="url(#f48-halo)"/><circle cx="39.68" cy="33.05" r="7.25" fill="url(#f48-halo)"/><circle cx="31.84" cy="19.47" r="7.25" fill="url(#f48-halo)"/><circle cx="24.00" cy="5.90" r="7.25" fill="url(#f48-halo)"/><circle cx="16.16" cy="37.58" r="8.16" fill="url(#f48-halo)"/><circle cx="8.32" cy="24.00" r="8.16" fill="url(#f48-halo)"/><circle cx="31.84" cy="37.58" r="8.16" fill="url(#f48-halo)"/><circle cx="16.16" cy="10.42" r="8.16" fill="url(#f48-halo)"/><circle cx="39.68" cy="24.00" r="8.16" fill="url(#f48-halo)"/><circle cx="31.84" cy="10.42" r="8.16" fill="url(#f48-halo)"/><circle cx="24.00" cy="42.10" r="9.07" fill="url(#f48-halo)"/><circle cx="16.16" cy="28.53" r="9.07" fill="url(#f48-halo)"/><circle cx="8.32" cy="14.95" r="9.07" fill="url(#f48-halo)"/><circle cx="31.84" cy="28.53" r="9.07" fill="url(#f48-halo)"/><circle cx="24.00" cy="14.95" r="9.07" fill="url(#f48-halo)"/><circle cx="39.68" cy="14.95" r="9.07" fill="url(#f48-halo)"/><circle cx="24.00" cy="33.05" r="9.97" fill="url(#f48-halo)"/><circle cx="16.16" cy="19.47" r="9.97" fill="url(#f48-halo)"/><circle cx="31.84" cy="19.47" r="9.97" fill="url(#f48-halo)"/><circle cx="24.00" cy="24.00" r="10.88" fill="url(#f48-halo)"/><circle cx="24.00" cy="24.00" r="1.60" fill="#0b1220" fill-opacity="0.550"/><circle cx="16.16" cy="28.53" r="1.87" fill="#0b1220" fill-opacity="0.625"/><circle cx="31.84" cy="28.53" r="1.87" fill="#0b1220" fill-opacity="0.625"/><circle cx="24.00" cy="14.95" r="1.87" fill="#0b1220" fill-opacity="0.625"/><circle cx="8.32" cy="33.05" r="2.13" fill="#0b1220" fill-opacity="0.700"/><circle cx="24.00" cy="33.05" r="2.13" fill="#0b1220" fill-opacity="0.700"/><circle cx="16.16" cy="19.47" r="2.13" fill="#0b1220" fill-opacity="0.700"/><circle cx="39.68" cy="33.05" r="2.13" fill="#0b1220" fill-opacity="0.700"/><circle cx="31.84" cy="19.47" r="2.13" fill="#0b1220" fill-opacity="0.700"/><circle cx="24.00" cy="5.90" r="2.13" fill="#0b1220" fill-opacity="0.700"/><circle cx="16.16" cy="37.58" r="2.40" fill="#0b1220" fill-opacity="0.775"/><circle cx="8.32" cy="24.00" r="2.40" fill="#0b1220" fill-opacity="0.775"/><circle cx="31.84" cy="37.58" r="2.40" fill="#0b1220" fill-opacity="0.775"/><circle cx="16.16" cy="10.42" r="2.40" fill="#0b1220" fill-opacity="0.775"/><circle cx="39.68" cy="24.00" r="2.40" fill="#0b1220" fill-opacity="0.775"/><circle cx="31.84" cy="10.42" r="2.40" fill="#0b1220" fill-opacity="0.775"/><circle cx="24.00" cy="42.10" r="2.67" fill="#0b1220" fill-opacity="0.850"/><circle cx="16.16" cy="28.53" r="2.67" fill="#0b1220" fill-opacity="0.850"/><circle cx="8.32" cy="14.95" r="2.67" fill="#0b1220" fill-opacity="0.850"/><circle cx="31.84" cy="28.53" r="2.67" fill="#0b1220" fill-opacity="0.850"/><circle cx="24.00" cy="14.95" r="2.67" fill="#0b1220" fill-opacity="0.850"/><circle cx="39.68" cy="14.95" r="2.67" fill="#0b1220" fill-opacity="0.850"/><circle cx="24.00" cy="33.05" r="2.93" fill="#0b1220" fill-opacity="0.925"/><circle cx="16.16" cy="19.47" r="2.93" fill="#0b1220" fill-opacity="0.925"/><circle cx="31.84" cy="19.47" r="2.93" fill="#0b1220" fill-opacity="0.925"/><circle cx="24.00" cy="24.00" r="3.20" fill="#0b1220" fill-opacity="1.000"/></g></svg>