<svg viewBox="0 0 16 16" xmlns="http://www.w3.org/2000/svg" width="16" height="16" style="display:block"><defs><radialGradient id="f16-halo" cx="50%" cy="50%" r="50%"><stop offset="0%" stop-color="#0b1220" stop-opacity="0.22"/><stop offset="55%" stop-color="#0b1220" stop-opacity="0.077"/><stop offset="100%" stop-color="#0b1220" stop-opacity="0"/></radialGradient></defs><g fill="none" stroke="#0b1220" stroke-linecap="round"><line x1="5.26" y1="9.58" x2="8.00" y2="8.00" stroke-width="0.52" stroke-opacity="0.377"/><line x1="8.00" y1="8.00" x2="8.00" y2="4.83" stroke-width="0.52" stroke-opacity="0.377"/><line x1="8.00" y1="8.00" x2="10.74" y2="9.58" stroke-width="0.52" stroke-opacity="0.377"/><line x1="2.51" y1="11.17" x2="5.26" y2="9.58" stroke-width="0.59" stroke-opacity="0.490"/><line x1="5.26" y1="9.58" x2="5.26" y2="6.42" stroke-width="0.59" stroke-opacity="0.490"/><line x1="5.26" y1="9.58" x2="8.00" y2="11.17" stroke-width="0.59" stroke-opacity="0.490"/><line x1="8.00" y1="11.17" x2="10.74" y2="9.58" stroke-width="0.59" stroke-opacity="0.490"/><line x1="5.26" y1="6.42" x2="8.00" y2="4.83" stroke-width="0.59" stroke-opacity="0.490"/><line x1="10.74" y1="9.58" x2="10.74" y2="6.42" stroke-width="0.59" stroke-opacity="0.490"/><line x1="10.74" y1="9.58" x2="13.49" y2="11.17" stroke-width="0.59" stroke-opacity="0.490"/><line x1="8.00" y1="4.83" x2="8.00" y2="1.66" stroke-width="0.59" stroke-opacity="0.490"/><line x1="8.00" y1="4.83" x2="10.74" y2="6.42" stroke-width="0.59" stroke-opacity="0.490"/><line x1="2.51" y1="11.17" x2="2.51" y2="8.00" stroke-width="0.66" stroke-opacity="0.603"/><line x1="2.51" y1="11.17" x2="5.26" y2="12.75" stroke-width="0.66" stroke-opacity="0.603"/><line x1="5.26" y1="12.75" x2="8.00" y2="11.17" stroke-width="0.66" stroke-opacity="0.603"/><line x1="2.51" y1="8.00" x2="5.26" y2="6.42" stroke-width="0.66" stroke-opacity="0.603"/><line x1="8.00" y1="11.17" x2="10.74" y2="12.75" stroke-width="0.66" stroke-opacity="0.603"/><line x1="10.74" y1="12.75" x2="13.49" y2="11.17" stroke-width="0.66" stroke-opacity="0.603"/><line x1="5.26" y1="6.42" x2="5.26" y2="3.25" stroke-width="0.66" stroke-opacity="0.603"/><line x1="5.26" y1="3.25" x2="8.00" y2="1.66" stroke-width="0.66" stroke-opacity="0.603"/><line x1="13.49" y1="11.17" x2="13.49" y2="8.00" stroke-width="0.66" stroke-opacity="0.603"/><line x1="10.74" y1="6.42" x2="10.74" y2="3.25" stroke-width="0.66" stroke-opacity="0.603"/><line x1="10.74" y1="6.42" x2="13.49" y2="8.00" stroke-width="0.66" stroke-opacity="0.603"/><line x1="8.00" y1="1.66" x2="10.74" y2="3.25" stroke-width="0.66" stroke-opacity="0.603"/><line x1="5.26" y1="12.75" x2="5.26" y2="9.58" stroke-width="0.73" stroke-opacity="0.717"/><line x1="5.26" y1="12.75" x2="8.00" y2="14.34" stroke-width="0.73" stroke-opacity="0.717"/><line x1="8.00" y1="14.34" x2="10.74" y2="12.75" stroke-width="0.73" stroke-opacity="0.717"/><line x1="2.51" y1="8.00" x2="2.51" y2="4.83" stroke-width="0.73" stroke-opacity="0.717"/><line x1="2.51" y1="8.00" x2="5.26" y2="9.58" stroke-width="0.73" stroke-opacity="0.717"/><line x1="2.51" y1="4.83" x2="5.26" y2="3.25" stroke-width="0.73" stroke-opacity="0.717"/><line x1="10.74" y1="12.75" x2="10.74" y2="9.58" stroke-width="0.73" stroke-opacity="0.717"/><line x1="10.74" y1="9.58" x2="13.49" y2="8.00" stroke-width="0.73" stroke-opacity="0.717"/><line x1="5.26" y1="3.25" x2="8.00" y2="4.83" stroke-width="0.73" stroke-opacity="0.717"/><line x1="8.00" y1="4.83" x2="10.74" y2="3.25" stroke-width="0.73" stroke-opacity="0.717"/><line x1="13.49" y1="8.00" x2="13.49" y2="4.83" stroke-width="0.73" stroke-opacity="0.717"/><line x1="10.74" y1="3.25" x2="13.49" y2="4.83" stroke-width="0.73" stroke-opacity="0.717"/><line x1="8.00" y1="14.34" x2="8.00" y2="11.17" stroke-width="0.80" stroke-opacity="0.830"/><line x1="5.26" y1="9.58" x2="5.26" y2="6.42" stroke-width="0.80" stroke-opacity="0.830"/><line x1="5.26" y1="9.58" x2="8.00" y2="11.17" stroke-width="0.80" stroke-opacity="0.830"/><line x1="8.00" y1="11.17" x2="10.74" y2="9.58" stroke-width="0.80" stroke-opacity="0.830"/><line x1="2.51" y1="4.83" x2="5.26" y2="6.42" stroke-width="0.80" stroke-opacity="0.830"/><line x1="5.26" y1="6.42" x2="8.00" y2="4.83" stroke-width="0.80" stroke-opacity="0.830"/><line x1="10.74" y1="9.58" x2="10.74" y2="6.42" stroke-width="0.80" stroke-opacity="0.830"/><line x1="8.00" y1="4.83" x2="10.74" y2="6.42" stroke-width="0.80" stroke-opacity="0.830"/><line x1="10.74" y1="6.42" x2="13.49" y2="4.83" stroke-width="0.80" stroke-opacity="0.830"/><line x1="8.00" y1="11.17" x2="8.00" y2="8.00" stroke-width="0.88" stroke-opacity="0.943"/><line x1="5.26" y1="6.42" x2="8.00" y2="8.00" stroke-width="0.88" stroke-opacity="0.943"/><line x1="8.00" y1="8.00" x2="10.74" y2="6.42" stroke-width="0.88" stroke-opacity="0.943"/></g><g><circle cx="8.00" cy="8.00" r="0.70" fill="#0b1220" fill-opacity="0.550"/><circle cx="5.26" cy="9.58" r="0.83" fill="#0b1220" fill-opacity="0.625"/><circle cx="10.74" cy="9.58" r="0.83" fill="#0b1220" fill-opacity="0.625"/><circle cx="8.00" cy="4.83" r="0.83" fill="#0b1220" fill-opacity="0.625"/><circle cx="2.51" cy="11.17" r="0.97" fill="#0b1220" fill-opacity="0.700"/><circle cx="8.00" cy="11.17" r="0.97" fill="#0b1220" fill-opacity="0.700"/><circle cx="5.26" cy="6.42" r="0.97" fill="#0b1220" fill-opacity="0.700"/><circle cx="13.49" cy="11.17" r="0.97" fill="#0b1220" fill-opacity="0.700"/><circle cx="10.74" cy="6.42" r="0.97" fill="#0b1220" fill-opacity="0.700"/><circle cx="8.00" cy="1.66" r="0.97" fill="#0b1220" fill-opacity="0.700"/><circle cx="5.26" cy="12.75" r="1.10" fill="#0b1220" fill-opacity="0.775"/><circle cx="2.51" cy="8.00" r="1.10" fill="#0b1220" fill-opacity="0.775"/><circle cx="10.74" cy="12.75" r="1.10" fill="#0b1220" fill-opacity="0.775"/><circle cx="5.26" cy="3.25" r="1.10" fill="#0b1220" fill-opacity="0.775"/><circle cx="13.49" cy="8.00" r="1.10" fill="#0b1220" fill-opacity="0.775"/><circle cx="10.74" cy="3.25" r="1.10" fill="#0b1220" fill-opacity="0.775"/><circle cx="8.00" cy="14.34" r="1.23" fill="#0b1220" fill-opacity="0.850"/><circle cx="5.26" cy="9.58" r="1.23" fill="#0b1220" fill-opacity="0.850"/><circle cx="2.51" cy="4.83" r="1.23" fill="#0b1220" fill-opacity="0.850"/><circle cx="10.74" cy="9.58" r="1.23" fill="#0b1220" fill-opacity="0.850"/><circle cx="8.00" cy="4.83" r="1.23" fill="#0b1220" fill-opacity="0.850"/><circle cx="13.49" cy="4.83" r="1.23" fill="#0b1220" fill-opacity="0.850"/><circle cx="8.00" cy="11.17" r="1.37" fill="#0b1220" fill-opacity="0.925"/><circle cx="5.26" cy="6.42" r="1.37" fill="#0b1220" fill-opacity="0.925"/><circle cx="10.74" cy="6.42" r="1.37" fill="#0b1220" fill-opacity="0.925"/><circle cx="8.00" cy="8.00" r="1.50" fill="#0b1220" fill-opacity="1.000"/></g></svg>