<svg xmlns="http://www.w3.org/2000/svg" viewBox="0 0 399 124" width="399" height="124"><g transform="translate(24 14)"><defs><radialGradient id="wmdk-halo" cx="50%" cy="50%" r="50%"><stop offset="0%" stop-color="#ffffff" stop-opacity="0.32"/><stop offset="55%" stop-color="#ffffff" stop-opacity="0.112"/><stop offset="100%" stop-color="#ffffff" stop-opacity="0"/></radialGradient></defs><g fill="none" stroke="#ffffff" stroke-linecap="round"><line x1="34.67" y1="55.69" x2="48.00" y2="48.00" stroke-width="1.27" stroke-opacity="0.377"/><line x1="48.00" y1="48.00" x2="48.00" y2="32.61" stroke-width="1.27" stroke-opacity="0.377"/><line x1="48.00" y1="48.00" x2="61.33" y2="55.69" stroke-width="1.27" stroke-opacity="0.377"/><line x1="21.35" y1="63.39" x2="34.67" y2="55.69" stroke-width="1.44" stroke-opacity="0.490"/><line x1="34.67" y1="55.69" x2="34.67" y2="40.31" stroke-width="1.44" stroke-opacity="0.490"/><line x1="34.67" y1="55.69" x2="48.00" y2="63.39" stroke-width="1.44" stroke-opacity="0.490"/><line x1="48.00" y1="63.39" x2="61.33" y2="55.69" stroke-width="1.44" stroke-opacity="0.490"/><line x1="34.67" y1="40.31" x2="48.00" y2="32.61" stroke-width="1.44" stroke-opacity="0.490"/><line x1="61.33" y1="55.69" x2="61.33" y2="40.31" stroke-width="1.44" stroke-opacity="0.490"/><line x1="61.33" y1="55.69" x2="74.65" y2="63.39" stroke-width="1.44" stroke-opacity="0.490"/><line x1="48.00" y1="32.61" x2="48.00" y2="17.23" stroke-width="1.44" stroke-opacity="0.490"/><line x1="48.00" y1="32.61" x2="61.33" y2="40.31" stroke-width="1.44" stroke-opacity="0.490"/><line x1="21.35" y1="63.39" x2="21.35" y2="48.00" stroke-width="1.61" stroke-opacity="0.603"/><line x1="21.35" y1="63.39" x2="34.67" y2="71.08" stroke-width="1.61" stroke-opacity="0.603"/><line x1="34.67" y1="71.08" x2="48.00" y2="63.39" stroke-width="1.61" stroke-opacity="0.603"/><line x1="21.35" y1="48.00" x2="34.67" y2="40.31" stroke-width="1.61" stroke-opacity="0.603"/><line x1="48.00" y1="63.39" x2="61.33" y2="71.08" stroke-width="1.61" stroke-opacity="0.603"/><line x1="61.33" y1="71.08" x2="74.65" y2="63.39" stroke-width="1.61" stroke-opacity="0.603"/><line x1="34.67" y1="40.31" x2="34.67" y2="24.92" stroke-width="1.61" stroke-opacity="0.603"/><line x1="34.67" y1="24.92" x2="48.00" y2="17.23" stroke-width="1.61" stroke-opacity="0.603"/><line x1="74.65" y1="63.39" x2="74.65" y2="48.00" stroke-width="1.61" stroke-opacity="0.603"/><line x1="61.33" y1="40.31" x2="61.33" y2="24.92" stroke-width="1.61" stroke-opacity="0.603"/><line x1="61.33" y1="40.31" x2="74.65" y2="48.00" stroke-width="1.61" stroke-opacity="0.603"/><line x1="48.00" y1="17.23" x2="61.33" y2="24.92" stroke-width="1.61" stroke-opacity="0.603"/><line x1="34.67" y1="71.08" x2="34.67" y2="55.69" stroke-width="1.78" stroke-opacity="0.717"/><line x1="34.67" y1="71.08" x2="48.00" y2="78.77" stroke-width="1.78" stroke-opacity="0.717"/><line x1="48.00" y1="78.77" x2="61.33" y2="71.08" stroke-width="1.78" stroke-opacity="0.717"/><line x1="21.35" y1="48.00" x2="21.35" y2="32.61" stroke-width="1.78" stroke-opacity="0.717"/><line x1="21.35" y1="48.00" x2="34.67" y2="55.69" stroke-width="1.78" stroke-opacity="0.717"/><line x1="21.35" y1="32.61" x2="34.67" y2="24.92" stroke-width="1.78" stroke-opacity="0.717"/><line x1="61.33" y1="71.08" x2="61.33" y2="55.69" stroke-width="1.78" stroke-opacity="0.717"/><line x1="61.33" y1="55.69" x2="74.65" y2="48.00" stroke-width="1.78" stroke-opacity="0.717"/><line x1="34.67" y1="24.92" x2="48.00" y2="32.61" stroke-width="1.78" stroke-opacity="0.717"/><line x1="48.00" y1="32.61" x2="61.33" y2="24.92" stroke-width="1.78" stroke-opacity="0.717"/><line x1="74.65" y1="48.00" x2="74.65" y2="32.61" stroke-width="1.78" stroke-opacity="0.717"/><line x1="61.33" y1="24.92" x2="74.65" y2="32.61" stroke-width="1.78" stroke-opacity="0.717"/><line x1="48.00" y1="78.77" x2="48.00" y2="63.39" stroke-width="1.95" stroke-opacity="0.830"/><line x1="34.67" y1="55.69" x2="34.67" y2="40.31" stroke-width="1.95" stroke-opacity="0.830"/><line x1="34.67" y1="55.69" x2="48.00" y2="63.39" stroke-width="1.95" stroke-opacity="0.830"/><line x1="48.00" y1="63.39" x2="61.33" y2="55.69" stroke-width="1.95" stroke-opacity="0.830"/><line x1="21.35" y1="32.61" x2="34.67" y2="40.31" stroke-width="1.95" stroke-opacity="0.830"/><line x1="34.67" y1="40.31" x2="48.00" y2="32.61" stroke-width="1.95" stroke-opacity="0.830"/><line x1="61.33" y1="55.69" x2="61.33" y2="40.31" stroke-width="1.95" stroke-opacity="0.830"/><line x1="48.00" y1="32.61" x2="61.33" y2="40.31" stroke-width="1.95" stroke-opacity="0.830"/><line x1="61.33" y1="40.31" x2="74.65" y2="32.61" stroke-width="1.95" stroke-opacity="0.830"/><line x1="48.00" y1="63.39" x2="48.00" y2="48.00" stroke-width="2.13" stroke-opacity="0.943"/><line x1="34.67" y1="40.31" x2="48.00" y2="48.00" stroke-width="2.13" stroke-opacity="0.943"/><line x1="48.00" y1="48.00" x2="61.33" y2="40.31" stroke-width="2.13" stroke-opacity="0.943"/></g><g><circle cx="48.00" cy="48.00" r="8.84" fill="url(#wmdk-halo)"/><circle cx="34.67" cy="55.69" r="11.22" fill="url(#wmdk-halo)"/><circle cx="61.33" cy="55.69" r="11.22" fill="url(#wmdk-halo)"/><circle cx="48.00" cy="32.61" r="11.22" fill="url(#wmdk-halo)"/><circle cx="21.35" cy="63.39" r="13.60" fill="url(#wmdk-halo)"/><circle cx="48.00" cy="63.39" r="13.60" fill="url(#wmdk-halo)"/><circle cx="34.67" cy="40.31" r="13.60" fill="url(#wmdk-halo)"/><circle cx="74.65" cy="63.39" r="13.60" fill="url(#wmdk-halo)"/><circle cx="61.33" cy="40.31" r="13.60" fill="url(#wmdk-halo)"/><circle cx="48.00" cy="17.23" r="13.60" fill="url(#wmdk-halo)"/><circle cx="34.67" cy="71.08" r="15.98" fill="url(#wmdk-halo)"/><circle cx="21.35" cy="48.00" r="15.98" fill="url(#wmdk-halo)"/><circle cx="61.33" cy="71.08" r="15.98" fill="url(#wmdk-halo)"/><circle cx="34.67" cy="24.92" r="15.98" fill="url(#wmdk-halo)"/><circle cx="74.65" cy="48.00" r="15.98" fill="url(#wmdk-halo)"/><circle cx="61.33" cy="24.92" r="15.98" fill="url(#wmdk-halo)"/><circle cx="48.00" cy="78.77" r="18.36" fill="url(#wmdk-halo)"/><circle cx="34.67" cy="55.69" r="18.36" fill="url(#wmdk-halo)"/><circle cx="21.35" cy="32.61" r="18.36" fill="url(#wmdk-halo)"/><circle cx="61.33" cy="55.69" r="18.36" fill="url(#wmdk-halo)"/><circle cx="48.00" cy="32.61" r="18.36" fill="url(#wmdk-halo)"/><circle cx="74.65" cy="32.61" r="18.36" fill="url(#wmdk-halo)"/><circle cx="48.00" cy="63.39" r="20.74" fill="url(#wmdk-halo)"/><circle cx="34.67" cy="40.31" r="20.74" fill="url(#wmdk-halo)"/><circle cx="61.33" cy="40.31" r="20.74" fill="url(#wmdk-halo)"/><circle cx="48.00" cy="48.00" r="23.12" fill="url(#wmdk-halo)"/><circle cx="48.00" cy="48.00" r="2.60" fill="#ffffff" fill-opacity="0.550"/><circle cx="34.67" cy="55.69" r="3.30" fill="#ffffff" fill-opacity="0.625"/><circle cx="61.33" cy="55.69" r="3.30" fill="#ffffff" fill-opacity="0.625"/><circle cx="48.00" cy="32.61" r="3.30" fill="#ffffff" fill-opacity="0.625"/><circle cx="21.35" cy="63.39" r="4.00" fill="#ffffff" fill-opacity="0.700"/><circle cx="48.00" cy="63.39" r="4.00" fill="#ffffff" fill-opacity="0.700"/><circle cx="34.67" cy="40.31" r="4.00" fill="#ffffff" fill-opacity="0.700"/><circle cx="74.65" cy="63.39" r="4.00" fill="#ffffff" fill-opacity="0.700"/><circle cx="61.33" cy="40.31" r="4.00" fill="#ffffff" fill-opacity="0.700"/><circle cx="48.00" cy="17.23" r="4.00" fill="#ffffff" fill-opacity="0.700"/><circle cx="34.67" cy="71.08" r="4.70" fill="#ffffff" fill-opacity="0.775"/><circle cx="21.35" cy="48.00" r="4.70" fill="#ffffff" fill-opacity="0.775"/><circle cx="61.33" cy="71.08" r="4.70" fill="#ffffff" fill-opacity="0.775"/><circle cx="34.67" cy="24.92" r="4.70" fill="#ffffff" fill-opacity="0.775"/><circle cx="74.65" cy="48.00" r="4.70" fill="#ffffff" fill-opacity="0.775"/><circle cx="61.33" cy="24.92" r="4.70" fill="#ffffff" fill-opacity="0.775"/><circle cx="48.00" cy="78.77" r="5.40" fill="#ffffff" fill-opacity="0.850"/><circle cx="34.67" cy="55.69" r="5.40" fill="#ffffff" fill-opacity="0.850"/><circle cx="21.35" cy="32.61" r="5.40" fill="#ffffff" fill-opacity="0.850"/><circle cx="61.33" cy="55.69" r="5.40" fill="#ffffff" fill-opacity="0.850"/><circle cx="48.00" cy="32.61" r="5.40" fill="#ffffff" fill-opacity="0.850"/><circle cx="74.65" cy="32.61" r="5.40" fill="#ffffff" fill-opacity="0.850"/><circle cx="48.00" cy="63.39" r="6.10" fill="#ffffff" fill-opacity="0.925"/><circle cx="34.67" cy="40.31" r="6.10" fill="#ffffff" fill-opacity="0.925"/><circle cx="61.33" cy="40.31" r="6.10" fill="#ffffff" fill-opacity="0.925"/><circle cx="48.00" cy="48.00" r="6.80" fill="#ffffff" fill-opacity="1.000"/></g></g><text x="142" y="82.2368" font-family="Outfit, Inter, 'Plus Jakarta Sans', system-ui, sans-serif" font-weight="500" font-size="59.519999999999996" letter-spacing="-1.8" fill="#ffffff">Lattice</text></svg>