<svg viewBox="0 0 440 440" xmlns="http://www.w3.org/2000/svg" width="440" height="440" style="display:block"><defs><radialGradient id="spin-halo" cx="50%" cy="50%" r="50%"><stop offset="0%" stop-color="#0b1220" stop-opacity="0.22"/><stop offset="55%" stop-color="#0b1220" stop-opacity="0.077"/><stop offset="100%" stop-color="#0b1220" stop-opacity="0"/></radialGradient></defs><g style="transform-origin:220px 220px"><animateTransform attributeName="transform" attributeType="XML" type="rotate" from="0 220 220" to="360 220 220" dur="14s" repeatCount="indefinite"/><g fill="none" stroke="#0b1220" stroke-linecap="round"><line x1="158.93" y1="255.26" x2="220.00" y2="220.00" stroke-width="1.27" stroke-opacity="0.377"/><line x1="220.00" y1="220.00" x2="220.00" y2="149.48" stroke-width="1.27" stroke-opacity="0.377"/><line x1="220.00" y1="220.00" x2="281.07" y2="255.26" stroke-width="1.27" stroke-opacity="0.377"/><line x1="97.85" y1="290.52" x2="158.93" y2="255.26" stroke-width="1.44" stroke-opacity="0.490"/><line x1="158.93" y1="255.26" x2="158.93" y2="184.74" stroke-width="1.44" stroke-opacity="0.490"/><line x1="158.93" y1="255.26" x2="220.00" y2="290.52" stroke-width="1.44" stroke-opacity="0.490"/><line x1="220.00" y1="290.52" x2="281.07" y2="255.26" stroke-width="1.44" stroke-opacity="0.490"/><line x1="158.93" y1="184.74" x2="220.00" y2="149.48" stroke-width="1.44" stroke-opacity="0.490"/><line x1="281.07" y1="255.26" x2="281.07" y2="184.74" stroke-width="1.44" stroke-opacity="0.490"/><line x1="281.07" y1="255.26" x2="342.15" y2="290.52" stroke-width="1.44" stroke-opacity="0.490"/><line x1="220.00" y1="149.48" x2="220.00" y2="78.96" stroke-width="1.44" stroke-opacity="0.490"/><line x1="220.00" y1="149.48" x2="281.07" y2="184.74" stroke-width="1.44" stroke-opacity="0.490"/><line x1="97.85" y1="290.52" x2="97.85" y2="220.00" stroke-width="1.61" stroke-opacity="0.603"/><line x1="97.85" y1="290.52" x2="158.93" y2="325.78" stroke-width="1.61" stroke-opacity="0.603"/><line x1="158.93" y1="325.78" x2="220.00" y2="290.52" stroke-width="1.61" stroke-opacity="0.603"/><line x1="97.85" y1="220.00" x2="158.93" y2="184.74" stroke-width="1.61" stroke-opacity="0.603"/><line x1="220.00" y1="290.52" x2="281.07" y2="325.78" stroke-width="1.61" stroke-opacity="0.603"/><line x1="281.07" y1="325.78" x2="342.15" y2="290.52" stroke-width="1.61" stroke-opacity="0.603"/><line x1="158.93" y1="184.74" x2="158.93" y2="114.22" stroke-width="1.61" stroke-opacity="0.603"/><line x1="158.93" y1="114.22" x2="220.00" y2="78.96" stroke-width="1.61" stroke-opacity="0.603"/><line x1="342.15" y1="290.52" x2="342.15" y2="220.00" stroke-width="1.61" stroke-opacity="0.603"/><line x1="281.07" y1="184.74" x2="281.07" y2="114.22" stroke-width="1.61" stroke-opacity="0.603"/><line x1="281.07" y1="184.74" x2="342.15" y2="220.00" stroke-width="1.61" stroke-opacity="0.603"/><line x1="220.00" y1="78.96" x2="281.07" y2="114.22" stroke-width="1.61" stroke-opacity="0.603"/><line x1="158.93" y1="325.78" x2="158.93" y2="255.26" stroke-width="1.78" stroke-opacity="0.717"/><line x1="158.93" y1="325.78" x2="220.00" y2="361.04" stroke-width="1.78" stroke-opacity="0.717"/><line x1="220.00" y1="361.04" x2="281.07" y2="325.78" stroke-width="1.78" stroke-opacity="0.717"/><line x1="97.85" y1="220.00" x2="97.85" y2="149.48" stroke-width="1.78" stroke-opacity="0.717"/><line x1="97.85" y1="220.00" x2="158.93" y2="255.26" stroke-width="1.78" stroke-opacity="0.717"/><line x1="97.85" y1="149.48" x2="158.93" y2="114.22" stroke-width="1.78" stroke-opacity="0.717"/><line x1="281.07" y1="325.78" x2="281.07" y2="255.26" stroke-width="1.78" stroke-opacity="0.717"/><line x1="281.07" y1="255.26" x2="342.15" y2="220.00" stroke-width="1.78" stroke-opacity="0.717"/><line x1="158.93" y1="114.22" x2="220.00" y2="149.48" stroke-width="1.78" stroke-opacity="0.717"/><line x1="220.00" y1="149.48" x2="281.07" y2="114.22" stroke-width="1.78" stroke-opacity="0.717"/><line x1="342.15" y1="220.00" x2="342.15" y2="149.48" stroke-width="1.78" stroke-opacity="0.717"/><line x1="281.07" y1="114.22" x2="342.15" y2="149.48" stroke-width="1.78" stroke-opacity="0.717"/><line x1="220.00" y1="361.04" x2="220.00" y2="290.52" stroke-width="1.95" stroke-opacity="0.830"/><line x1="158.93" y1="255.26" x2="158.93" y2="184.74" stroke-width="1.95" stroke-opacity="0.830"/><line x1="158.93" y1="255.26" x2="220.00" y2="290.52" stroke-width="1.95" stroke-opacity="0.830"/><line x1="220.00" y1="290.52" x2="281.07" y2="255.26" stroke-width="1.95" stroke-opacity="0.830"/><line x1="97.85" y1="149.48" x2="158.93" y2="184.74" stroke-width="1.95" stroke-opacity="0.830"/><line x1="158.93" y1="184.74" x2="220.00" y2="149.48" stroke-width="1.95" stroke-opacity="0.830"/><line x1="281.07" y1="255.26" x2="281.07" y2="184.74" stroke-width="1.95" stroke-opacity="0.830"/><line x1="220.00" y1="149.48" x2="281.07" y2="184.74" stroke-width="1.95" stroke-opacity="0.830"/><line x1="281.07" y1="184.74" x2="342.15" y2="149.48" stroke-width="1.95" stroke-opacity="0.830"/><line x1="220.00" y1="290.52" x2="220.00" y2="220.00" stroke-width="2.13" stroke-opacity="0.943"/><line x1="158.93" y1="184.74" x2="220.00" y2="220.00" stroke-width="2.13" stroke-opacity="0.943"/><line x1="220.00" y1="220.00" x2="281.07" y2="184.74" stroke-width="2.13" stroke-opacity="0.943"/></g><g><circle cx="220.00" cy="220.00" r="8.84" fill="url(#spin-halo)"/><circle cx="158.93" cy="255.26" r="11.22" fill="url(#spin-halo)"/><circle cx="281.07" cy="255.26" r="11.22" fill="url(#spin-halo)"/><circle cx="220.00" cy="149.48" r="11.22" fill="url(#spin-halo)"/><circle cx="97.85" cy="290.52" r="13.60" fill="url(#spin-halo)"/><circle cx="220.00" cy="290.52" r="13.60" fill="url(#spin-halo)"/><circle cx="158.93" cy="184.74" r="13.60" fill="url(#spin-halo)"/><circle cx="342.15" cy="290.52" r="13.60" fill="url(#spin-halo)"/><circle cx="281.07" cy="184.74" r="13.60" fill="url(#spin-halo)"/><circle cx="220.00" cy="78.96" r="13.60" fill="url(#spin-halo)"/><circle cx="158.93" cy="325.78" r="15.98" fill="url(#spin-halo)"/><circle cx="97.85" cy="220.00" r="15.98" fill="url(#spin-halo)"/><circle cx="281.07" cy="325.78" r="15.98" fill="url(#spin-halo)"/><circle cx="158.93" cy="114.22" r="15.98" fill="url(#spin-halo)"/><circle cx="342.15" cy="220.00" r="15.98" fill="url(#spin-halo)"/><circle cx="281.07" cy="114.22" r="15.98" fill="url(#spin-halo)"/><circle cx="220.00" cy="361.04" r="18.36" fill="url(#spin-halo)"/><circle cx="158.93" cy="255.26" r="18.36" fill="url(#spin-halo)"/><circle cx="97.85" cy="149.48" r="18.36" fill="url(#spin-halo)"/><circle cx="281.07" cy="255.26" r="18.36" fill="url(#spin-halo)"/><circle cx="220.00" cy="149.48" r="18.36" fill="url(#spin-halo)"/><circle cx="342.15" cy="149.48" r="18.36" fill="url(#spin-halo)"/><circle cx="220.00" cy="290.52" r="20.74" fill="url(#spin-halo)"/><circle cx="158.93" cy="184.74" r="20.74" fill="url(#spin-halo)"/><circle cx="281.07" cy="184.74" r="20.74" fill="url(#spin-halo)"/><circle cx="220.00" cy="220.00" r="23.12" fill="url(#spin-halo)"/><circle cx="220.00" cy="220.00" r="2.60" fill="#0b1220" fill-opacity="0.550"/><circle cx="158.93" cy="255.26" r="3.30" fill="#0b1220" fill-opacity="0.625"/><circle cx="281.07" cy="255.26" r="3.30" fill="#0b1220" fill-opacity="0.625"/><circle cx="220.00" cy="149.48" r="3.30" fill="#0b1220" fill-opacity="0.625"/><circle cx="97.85" cy="290.52" r="4.00" fill="#0b1220" fill-opacity="0.700"/><circle cx="220.00" cy="290.52" r="4.00" fill="#0b1220" fill-opacity="0.700"/><circle cx="158.93" cy="184.74" r="4.00" fill="#0b1220" fill-opacity="0.700"/><circle cx="342.15" cy="290.52" r="4.00" fill="#0b1220" fill-opacity="0.700"/><circle cx="281.07" cy="184.74" r="4.00" fill="#0b1220" fill-opacity="0.700"/><circle cx="220.00" cy="78.96" r="4.00" fill="#0b1220" fill-opacity="0.700"/><circle cx="158.93" cy="325.78" r="4.70" fill="#0b1220" fill-opacity="0.775"/><circle cx="97.85" cy="220.00" r="4.70" fill="#0b1220" fill-opacity="0.775"/><circle cx="281.07" cy="325.78" r="4.70" fill="#0b1220" fill-opacity="0.775"/><circle cx="158.93" cy="114.22" r="4.70" fill="#0b1220" fill-opacity="0.775"/><circle cx="342.15" cy="220.00" r="4.70" fill="#0b1220" fill-opacity="0.775"/><circle cx="281.07" cy="114.22" r="4.70" fill="#0b1220" fill-opacity="0.775"/><circle cx="220.00" cy="361.04" r="5.40" fill="#0b1220" fill-opacity="0.850"/><circle cx="158.93" cy="255.26" r="5.40" fill="#0b1220" fill-opacity="0.850"/><circle cx="97.85" cy="149.48" r="5.40" fill="#0b1220" fill-opacity="0.850"/><circle cx="281.07" cy="255.26" r="5.40" fill="#0b1220" fill-opacity="0.850"/><circle cx="220.00" cy="149.48" r="5.40" fill="#0b1220" fill-opacity="0.850"/><circle cx="342.15" cy="149.48" r="5.40" fill="#0b1220" fill-opacity="0.850"/><circle cx="220.00" cy="290.52" r="6.10" fill="#0b1220" fill-opacity="0.925"/><circle cx="158.93" cy="184.74" r="6.10" fill="#0b1220" fill-opacity="0.925"/><circle cx="281.07" cy="184.74" r="6.10" fill="#0b1220" fill-opacity="0.925"/><circle cx="220.00" cy="220.00" r="6.80" fill="#0b1220" fill-opacity="1.000"/></g></g></svg>