<svg xmlns="http://www.w3.org/2000/svg" viewBox="0 0 1200 630" width="1200" height="630"><rect x="0" y="0" width="1200" height="630" fill="#0b1220"/><g transform="translate(96 175)"><defs><radialGradient id="soc-halo" cx="50%" cy="50%" r="50%"><stop offset="0%" stop-color="#ffffff" stop-opacity="0.28"/><stop offset="55%" stop-color="#ffffff" stop-opacity="0.098"/><stop offset="100%" stop-color="#ffffff" stop-opacity="0"/></radialGradient></defs><g fill="none" stroke="#ffffff" stroke-linecap="round"><line x1="101.13" y1="162.44" x2="140.00" y2="140.00" stroke-width="1.27" stroke-opacity="0.377"/><line x1="140.00" y1="140.00" x2="140.00" y2="95.12" stroke-width="1.27" stroke-opacity="0.377"/><line x1="140.00" y1="140.00" x2="178.87" y2="162.44" stroke-width="1.27" stroke-opacity="0.377"/><line x1="62.27" y1="184.88" x2="101.13" y2="162.44" stroke-width="1.44" stroke-opacity="0.490"/><line x1="101.13" y1="162.44" x2="101.13" y2="117.56" stroke-width="1.44" stroke-opacity="0.490"/><line x1="101.13" y1="162.44" x2="140.00" y2="184.88" stroke-width="1.44" stroke-opacity="0.490"/><line x1="140.00" y1="184.88" x2="178.87" y2="162.44" stroke-width="1.44" stroke-opacity="0.490"/><line x1="101.13" y1="117.56" x2="140.00" y2="95.12" stroke-width="1.44" stroke-opacity="0.490"/><line x1="178.87" y1="162.44" x2="178.87" y2="117.56" stroke-width="1.44" stroke-opacity="0.490"/><line x1="178.87" y1="162.44" x2="217.73" y2="184.88" stroke-width="1.44" stroke-opacity="0.490"/><line x1="140.00" y1="95.12" x2="140.00" y2="50.24" stroke-width="1.44" stroke-opacity="0.490"/><line x1="140.00" y1="95.12" x2="178.87" y2="117.56" stroke-width="1.44" stroke-opacity="0.490"/><line x1="62.27" y1="184.88" x2="62.27" y2="140.00" stroke-width="1.61" stroke-opacity="0.603"/><line x1="62.27" y1="184.88" x2="101.13" y2="207.32" stroke-width="1.61" stroke-opacity="0.603"/><line x1="101.13" y1="207.32" x2="140.00" y2="184.88" stroke-width="1.61" stroke-opacity="0.603"/><line x1="62.27" y1="140.00" x2="101.13" y2="117.56" stroke-width="1.61" stroke-opacity="0.603"/><line x1="140.00" y1="184.88" x2="178.87" y2="207.32" stroke-width="1.61" stroke-opacity="0.603"/><line x1="178.87" y1="207.32" x2="217.73" y2="184.88" stroke-width="1.61" stroke-opacity="0.603"/><line x1="101.13" y1="117.56" x2="101.13" y2="72.68" stroke-width="1.61" stroke-opacity="0.603"/><line x1="101.13" y1="72.68" x2="140.00" y2="50.24" stroke-width="1.61" stroke-opacity="0.603"/><line x1="217.73" y1="184.88" x2="217.73" y2="140.00" stroke-width="1.61" stroke-opacity="0.603"/><line x1="178.87" y1="117.56" x2="178.87" y2="72.68" stroke-width="1.61" stroke-opacity="0.603"/><line x1="178.87" y1="117.56" x2="217.73" y2="140.00" stroke-width="1.61" stroke-opacity="0.603"/><line x1="140.00" y1="50.24" x2="178.87" y2="72.68" stroke-width="1.61" stroke-opacity="0.603"/><line x1="101.13" y1="207.32" x2="101.13" y2="162.44" stroke-width="1.78" stroke-opacity="0.717"/><line x1="101.13" y1="207.32" x2="140.00" y2="229.76" stroke-width="1.78" stroke-opacity="0.717"/><line x1="140.00" y1="229.76" x2="178.87" y2="207.32" stroke-width="1.78" stroke-opacity="0.717"/><line x1="62.27" y1="140.00" x2="62.27" y2="95.12" stroke-width="1.78" stroke-opacity="0.717"/><line x1="62.27" y1="140.00" x2="101.13" y2="162.44" stroke-width="1.78" stroke-opacity="0.717"/><line x1="62.27" y1="95.12" x2="101.13" y2="72.68" stroke-width="1.78" stroke-opacity="0.717"/><line x1="178.87" y1="207.32" x2="178.87" y2="162.44" stroke-width="1.78" stroke-opacity="0.717"/><line x1="178.87" y1="162.44" x2="217.73" y2="140.00" stroke-width="1.78" stroke-opacity="0.717"/><line x1="101.13" y1="72.68" x2="140.00" y2="95.12" stroke-width="1.78" stroke-opacity="0.717"/><line x1="140.00" y1="95.12" x2="178.87" y2="72.68" stroke-width="1.78" stroke-opacity="0.717"/><line x1="217.73" y1="140.00" x2="217.73" y2="95.12" stroke-width="1.78" stroke-opacity="0.717"/><line x1="178.87" y1="72.68" x2="217.73" y2="95.12" stroke-width="1.78" stroke-opacity="0.717"/><line x1="140.00" y1="229.76" x2="140.00" y2="184.88" stroke-width="1.95" stroke-opacity="0.830"/><line x1="101.13" y1="162.44" x2="101.13" y2="117.56" stroke-width="1.95" stroke-opacity="0.830"/><line x1="101.13" y1="162.44" x2="140.00" y2="184.88" stroke-width="1.95" stroke-opacity="0.830"/><line x1="140.00" y1="184.88" x2="178.87" y2="162.44" stroke-width="1.95" stroke-opacity="0.830"/><line x1="62.27" y1="95.12" x2="101.13" y2="117.56" stroke-width="1.95" stroke-opacity="0.830"/><line x1="101.13" y1="117.56" x2="140.00" y2="95.12" stroke-width="1.95" stroke-opacity="0.830"/><line x1="178.87" y1="162.44" x2="178.87" y2="117.56" stroke-width="1.95" stroke-opacity="0.830"/><line x1="140.00" y1="95.12" x2="178.87" y2="117.56" stroke-width="1.95" stroke-opacity="0.830"/><line x1="178.87" y1="117.56" x2="217.73" y2="95.12" stroke-width="1.95" stroke-opacity="0.830"/><line x1="140.00" y1="184.88" x2="140.00" y2="140.00" stroke-width="2.13" stroke-opacity="0.943"/><line x1="101.13" y1="117.56" x2="140.00" y2="140.00" stroke-width="2.13" stroke-opacity="0.943"/><line x1="140.00" y1="140.00" x2="178.87" y2="117.56" stroke-width="2.13" stroke-opacity="0.943"/></g><g><circle cx="140.00" cy="140.00" r="8.84" fill="url(#soc-halo)"/><circle cx="101.13" cy="162.44" r="11.22" fill="url(#soc-halo)"/><circle cx="178.87" cy="162.44" r="11.22" fill="url(#soc-halo)"/><circle cx="140.00" cy="95.12" r="11.22" fill="url(#soc-halo)"/><circle cx="62.27" cy="184.88" r="13.60" fill="url(#soc-halo)"/><circle cx="140.00" cy="184.88" r="13.60" fill="url(#soc-halo)"/><circle cx="101.13" cy="117.56" r="13.60" fill="url(#soc-halo)"/><circle cx="217.73" cy="184.88" r="13.60" fill="url(#soc-halo)"/><circle cx="178.87" cy="117.56" r="13.60" fill="url(#soc-halo)"/><circle cx="140.00" cy="50.24" r="13.60" fill="url(#soc-halo)"/><circle cx="101.13" cy="207.32" r="15.98" fill="url(#soc-halo)"/><circle cx="62.27" cy="140.00" r="15.98" fill="url(#soc-halo)"/><circle cx="178.87" cy="207.32" r="15.98" fill="url(#soc-halo)"/><circle cx="101.13" cy="72.68" r="15.98" fill="url(#soc-halo)"/><circle cx="217.73" cy="140.00" r="15.98" fill="url(#soc-halo)"/><circle cx="178.87" cy="72.68" r="15.98" fill="url(#soc-halo)"/><circle cx="140.00" cy="229.76" r="18.36" fill="url(#soc-halo)"/><circle cx="101.13" cy="162.44" r="18.36" fill="url(#soc-halo)"/><circle cx="62.27" cy="95.12" r="18.36" fill="url(#soc-halo)"/><circle cx="178.87" cy="162.44" r="18.36" fill="url(#soc-halo)"/><circle cx="140.00" cy="95.12" r="18.36" fill="url(#soc-halo)"/><circle cx="217.73" cy="95.12" r="18.36" fill="url(#soc-halo)"/><circle cx="140.00" cy="184.88" r="20.74" fill="url(#soc-halo)"/><circle cx="101.13" cy="117.56" r="20.74" fill="url(#soc-halo)"/><circle cx="178.87" cy="117.56" r="20.74" fill="url(#soc-halo)"/><circle cx="140.00" cy="140.00" r="23.12" fill="url(#soc-halo)"/><circle cx="140.00" cy="140.00" r="2.60" fill="#ffffff" fill-opacity="0.550"/><circle cx="101.13" cy="162.44" r="3.30" fill="#ffffff" fill-opacity="0.625"/><circle cx="178.87" cy="162.44" r="3.30" fill="#ffffff" fill-opacity="0.625"/><circle cx="140.00" cy="95.12" r="3.30" fill="#ffffff" fill-opacity="0.625"/><circle cx="62.27" cy="184.88" r="4.00" fill="#ffffff" fill-opacity="0.700"/><circle cx="140.00" cy="184.88" r="4.00" fill="#ffffff" fill-opacity="0.700"/><circle cx="101.13" cy="117.56" r="4.00" fill="#ffffff" fill-opacity="0.700"/><circle cx="217.73" cy="184.88" r="4.00" fill="#ffffff" fill-opacity="0.700"/><circle cx="178.87" cy="117.56" r="4.00" fill="#ffffff" fill-opacity="0.700"/><circle cx="140.00" cy="50.24" r="4.00" fill="#ffffff" fill-opacity="0.700"/><circle cx="101.13" cy="207.32" r="4.70" fill="#ffffff" fill-opacity="0.775"/><circle cx="62.27" cy="140.00" r="4.70" fill="#ffffff" fill-opacity="0.775"/><circle cx="178.87" cy="207.32" r="4.70" fill="#ffffff" fill-opacity="0.775"/><circle cx="101.13" cy="72.68" r="4.70" fill="#ffffff" fill-opacity="0.775"/><circle cx="217.73" cy="140.00" r="4.70" fill="#ffffff" fill-opacity="0.775"/><circle cx="178.87" cy="72.68" r="4.70" fill="#ffffff" fill-opacity="0.775"/><circle cx="140.00" cy="229.76" r="5.40" fill="#ffffff" fill-opacity="0.850"/><circle cx="101.13" cy="162.44" r="5.40" fill="#ffffff" fill-opacity="0.850"/><circle cx="62.27" cy="95.12" r="5.40" fill="#ffffff" fill-opacity="0.850"/><circle cx="178.87" cy="162.44" r="5.40" fill="#ffffff" fill-opacity="0.850"/><circle cx="140.00" cy="95.12" r="5.40" fill="#ffffff" fill-opacity="0.850"/><circle cx="217.73" cy="95.12" r="5.40" fill="#ffffff" fill-opacity="0.850"/><circle cx="140.00" cy="184.88" r="6.10" fill="#ffffff" fill-opacity="0.925"/><circle cx="101.13" cy="117.56" r="6.10" fill="#ffffff" fill-opacity="0.925"/><circle cx="178.87" cy="117.56" r="6.10" fill="#ffffff" fill-opacity="0.925"/><circle cx="140.00" cy="140.00" r="6.80" fill="#ffffff" fill-opacity="1.000"/></g></g><text x="432" y="307" font-family="Outfit, Inter, 'Plus Jakarta Sans', system-ui, sans-serif" font-weight="500" font-size="96" letter-spacing="-2.9" fill="#ffffff">Lattice</text><text x="432" y="363" font-family="'Plus Jakarta Sans', Inter, system-ui, sans-serif" font-weight="400" font-size="28" fill="rgba(255,255,255,0.62)">Capability-first runtime SDK for multimodal AI applications.</text></svg>